<svg width="32" height="32" viewBox="0 0 32 32" xmlns="http://www.w3.org/2000/svg">
  <defs>
    <linearGradient id="filmGradient" x1="0%" y1="0%" x2="100%" y2="100%">
      <stop offset="0%" style="stop-color:#4F46E5;stop-opacity:1" />
      <stop offset="100%" style="stop-color:#EC4899;stop-opacity:1" />
    </linearGradient>
    <linearGradient id="playGradient" x1="0%" y1="0%" x2="100%" y2="100%">
      <stop offset="0%" style="stop-color:#10B981;stop-opacity:1" />
      <stop offset="100%" style="stop-color:#059669;stop-opacity:1" />
    </linearGradient>
  </defs>
  
  <!-- Background -->
  <circle cx="16" cy="16" r="15" fill="#1F2937" stroke="#374151" stroke-width="1"/>
  
  <!-- Film strip -->
  <rect x="4" y="11" width="24" height="10" rx="2" fill="url(#filmGradient)"/>
  
  <!-- Film holes -->
  <rect x="6" y="13" width="1" height="1" fill="#1F2937"/>
  <rect x="9" y="13" width="1" height="1" fill="#1F2937"/>
  <rect x="12" y="13" width="1" height="1" fill="#1F2937"/>
  <rect x="15" y="13" width="1" height="1" fill="#1F2937"/>
  <rect x="18" y="13" width="1" height="1" fill="#1F2937"/>
  <rect x="21" y="13" width="1" height="1" fill="#1F2937"/>
  <rect x="24" y="13" width="1" height="1" fill="#1F2937"/>
  
  <rect x="6" y="18" width="1" height="1" fill="#1F2937"/>
  <rect x="9" y="18" width="1" height="1" fill="#1F2937"/>
  <rect x="12" y="18" width="1" height="1" fill="#1F2937"/>
  <rect x="15" y="18" width="1" height="1" fill="#1F2937"/>
  <rect x="18" y="18" width="1" height="1" fill="#1F2937"/>
  <rect x="21" y="18" width="1" height="1" fill="#1F2937"/>
  <rect x="24" y="18" width="1" height="1" fill="#1F2937"/>
  
  <!-- Play button -->
  <circle cx="16" cy="16" r="5" fill="url(#playGradient)"/>
  <polygon points="14,13 14,19 20,16" fill="#FFFFFF"/>
</svg> 