<svg width="128" height="128" viewBox="0 0 128 128" xmlns="http://www.w3.org/2000/svg">
  <defs>
    <!-- Gradient for the main film reel -->
    <linearGradient id="filmGradient" x1="0%" y1="0%" x2="100%" y2="100%">
      <stop offset="0%" style="stop-color:#4F46E5;stop-opacity:1" />
      <stop offset="50%" style="stop-color:#7C3AED;stop-opacity:1" />
      <stop offset="100%" style="stop-color:#EC4899;stop-opacity:1" />
    </linearGradient>
    
    <!-- Gradient for the play button -->
    <linearGradient id="playGradient" x1="0%" y1="0%" x2="100%" y2="100%">
      <stop offset="0%" style="stop-color:#10B981;stop-opacity:1" />
      <stop offset="100%" style="stop-color:#059669;stop-opacity:1" />
    </linearGradient>
    
    <!-- Shadow filter -->
    <filter id="shadow" x="-50%" y="-50%" width="200%" height="200%">
      <feDropShadow dx="2" dy="4" stdDeviation="3" flood-color="#000000" flood-opacity="0.3"/>
    </filter>
    
    <!-- Glow effect -->
    <filter id="glow" x="-50%" y="-50%" width="200%" height="200%">
      <feGaussianBlur stdDeviation="2" result="coloredBlur"/>
      <feMerge> 
        <feMergeNode in="coloredBlur"/>
        <feMergeNode in="SourceGraphic"/>
      </feMerge>
    </filter>
  </defs>
  
  <!-- Background circle -->
  <circle cx="64" cy="64" r="60" fill="#1F2937" stroke="#374151" stroke-width="2" filter="url(#shadow)"/>
  
  <!-- Film strip background -->
  <rect x="20" y="45" width="88" height="38" rx="4" fill="url(#filmGradient)" opacity="0.9"/>
  
  <!-- Film strip holes -->
  <rect x="24" y="49" width="4" height="4" rx="1" fill="#1F2937"/>
  <rect x="32" y="49" width="4" height="4" rx="1" fill="#1F2937"/>
  <rect x="40" y="49" width="4" height="4" rx="1" fill="#1F2937"/>
  <rect x="48" y="49" width="4" height="4" rx="1" fill="#1F2937"/>
  <rect x="56" y="49" width="4" height="4" rx="1" fill="#1F2937"/>
  <rect x="64" y="49" width="4" height="4" rx="1" fill="#1F2937"/>
  <rect x="72" y="49" width="4" height="4" rx="1" fill="#1F2937"/>
  <rect x="80" y="49" width="4" height="4" rx="1" fill="#1F2937"/>
  <rect x="88" y="49" width="4" height="4" rx="1" fill="#1F2937"/>
  <rect x="96" y="49" width="4" height="4" rx="1" fill="#1F2937"/>
  
  <rect x="24" y="75" width="4" height="4" rx="1" fill="#1F2937"/>
  <rect x="32" y="75" width="4" height="4" rx="1" fill="#1F2937"/>
  <rect x="40" y="75" width="4" height="4" rx="1" fill="#1F2937"/>
  <rect x="48" y="75" width="4" height="4" rx="1" fill="#1F2937"/>
  <rect x="56" y="75" width="4" height="4" rx="1" fill="#1F2937"/>
  <rect x="64" y="75" width="4" height="4" rx="1" fill="#1F2937"/>
  <rect x="72" y="75" width="4" height="4" rx="1" fill="#1F2937"/>
  <rect x="80" y="75" width="4" height="4" rx="1" fill="#1F2937"/>
  <rect x="88" y="75" width="4" height="4" rx="1" fill="#1F2937"/>
  <rect x="96" y="75" width="4" height="4" rx="1" fill="#1F2937"/>
  
  <!-- Film frames -->
  <rect x="28" y="55" width="12" height="18" rx="1" fill="#F3F4F6" opacity="0.9"/>
  <rect x="44" y="55" width="12" height="18" rx="1" fill="#F3F4F6" opacity="0.9"/>
  <rect x="60" y="55" width="12" height="18" rx="1" fill="#F3F4F6" opacity="0.9"/>
  <rect x="76" y="55" width="12" height="18" rx="1" fill="#F3F4F6" opacity="0.9"/>
  <rect x="92" y="55" width="12" height="18" rx="1" fill="#F3F4F6" opacity="0.9"/>
  
  <!-- Central play button -->
  <circle cx="64" cy="64" r="18" fill="url(#playGradient)" filter="url(#glow)"/>
  <polygon points="58,56 58,72 74,64" fill="#FFFFFF" filter="url(#shadow)"/>
  
  <!-- MCP connection nodes -->
  <circle cx="30" cy="30" r="4" fill="#F59E0B" filter="url(#glow)"/>
  <circle cx="98" cy="30" r="4" fill="#F59E0B" filter="url(#glow)"/>
  <circle cx="30" cy="98" r="4" fill="#F59E0B" filter="url(#glow)"/>
  <circle cx="98" cy="98" r="4" fill="#F59E0B" filter="url(#glow)"/>
  
  <!-- Connection lines -->
  <line x1="30" y1="30" x2="50" y2="50" stroke="#F59E0B" stroke-width="2" opacity="0.6"/>
  <line x1="98" y1="30" x2="78" y2="50" stroke="#F59E0B" stroke-width="2" opacity="0.6"/>
  <line x1="30" y1="98" x2="50" y2="78" stroke="#F59E0B" stroke-width="2" opacity="0.6"/>
  <line x1="98" y1="98" x2="78" y2="78" stroke="#F59E0B" stroke-width="2" opacity="0.6"/>
  
  <!-- Editing tools indicators -->
  <rect x="12" y="60" width="8" height="2" rx="1" fill="#EF4444" opacity="0.8"/>
  <rect x="12" y="64" width="6" height="2" rx="1" fill="#F97316" opacity="0.8"/>
  <rect x="12" y="68" width="10" height="2" rx="1" fill="#EAB308" opacity="0.8"/>
  
  <rect x="108" y="60" width="8" height="2" rx="1" fill="#EF4444" opacity="0.8"/>
  <rect x="110" y="64" width="6" height="2" rx="1" fill="#F97316" opacity="0.8"/>
  <rect x="108" y="68" width="8" height="2" rx="1" fill="#EAB308" opacity="0.8"/>
</svg> 